<?xml version="1.0" encoding="iso-8859-1"?>
<!-- Generator: Adobe Illustrator 22.1.0, SVG Export Plug-In . SVG Version: 6.00 Build 0)  -->
<svg version="1.1" id="&#x56FE;&#x5C42;_1" xmlns="http://www.w3.org/2000/svg" xmlns:xlink="http://www.w3.org/1999/xlink" x="0px"
	 y="0px" viewBox="0 0 158 44" style="enable-background:new 0 0 158 44;" xml:space="preserve">
<g>
	<g>
		<defs>
			<path id="SVGID_1_" d="M49.57,42.155c-0.781,0-1.568-0.064-2.356-0.192c-3.211-0.524-6.176-2.142-8.349-4.556
				c-0.553-0.615-0.504-1.562,0.111-2.115c0.615-0.553,1.562-0.504,2.115,0.111c1.744,1.937,4.028,3.183,6.606,3.604
				c3.101,0.506,6.189-0.261,8.694-2.16c2.243-1.701,3.768-4.16,4.293-6.923c0.019-0.098,0.036-0.196,0.052-0.295
				c0.445-2.726-0.116-5.514-1.579-7.852c-1.734-2.77-4.577-4.661-7.799-5.187c-0.419-0.068-0.844-0.114-1.264-0.135
				c-0.826-0.042-1.461-0.746-1.419-1.572c0.042-0.826,0.747-1.462,1.572-1.419c0.529,0.027,1.065,0.085,1.593,0.171
				c4.072,0.665,7.665,3.053,9.856,6.554c1.85,2.955,2.559,6.479,1.997,9.924c-0.02,0.124-0.042,0.248-0.066,0.372
				c-0.663,3.493-2.59,6.601-5.425,8.751C55.672,41.15,52.673,42.155,49.57,42.155z"/>
		</defs>
		<clipPath id="SVGID_2_">
			<use xlink:href="#SVGID_1_"  style="overflow:visible;"/>
		</clipPath>
		
			<linearGradient id="SVGID_3_" gradientUnits="userSpaceOnUse" x1="0.915" y1="22.8025" x2="63.8797" y2="22.8025" gradientTransform="matrix(1 0 0 -1 0 46)">
			<stop  offset="0" style="stop-color:#FF9600"/>
			<stop  offset="1" style="stop-color:#FFCC00"/>
		</linearGradient>
		<rect x="0.915" y="1.661" style="clip-path:url(#SVGID_2_);fill:url(#SVGID_3_);" width="62.965" height="43.073"/>
	</g>
</g>
<g>
	<g>
		<defs>
			<path id="SVGID_4_" d="M45.507,27.206c-0.419,0-0.836-0.175-1.132-0.517c-0.542-0.625-0.474-1.571,0.151-2.112
				c2.253-1.953,3.695-4.657,4.058-7.614c0.013-0.104,0.024-0.21,0.035-0.316c0.282-2.912-0.504-5.821-2.212-8.19
				c-2.024-2.808-5.16-4.61-8.602-4.943c-5.076-0.491-9.929,2.285-12.074,6.909c-0.348,0.75-1.238,1.076-1.989,0.728
				c-0.75-0.348-1.076-1.239-0.728-1.989c2.68-5.775,8.739-9.243,15.08-8.629c4.3,0.416,8.215,2.666,10.743,6.172
				c2.134,2.96,3.116,6.594,2.764,10.23c-0.013,0.131-0.027,0.262-0.043,0.392c-0.454,3.695-2.255,7.073-5.069,9.512
				C46.204,27.086,45.854,27.206,45.507,27.206z"/>
		</defs>
		<clipPath id="SVGID_5_">
			<use xlink:href="#SVGID_4_"  style="overflow:visible;"/>
		</clipPath>
		<g style="clip-path:url(#SVGID_5_);">
			
				<linearGradient id="SVGID_6_" gradientUnits="userSpaceOnUse" x1="0.915" y1="24.0005" x2="63.8797" y2="24.0005" gradientTransform="matrix(1 0 0 -1 0 46)">
				<stop  offset="0" style="stop-color:#FF9600"/>
				<stop  offset="1" style="stop-color:#FFCC00"/>
			</linearGradient>
			<rect x="0.915" y="0.463" style="fill:url(#SVGID_6_);" width="62.965" height="43.073"/>
		</g>
	</g>
</g>
<path style="fill:#FFCC00;" d="M18.642,36.178c-5.716,0-10.366-4.65-10.366-10.366s4.65-10.366,10.366-10.366
	c2.98,0,5.818,1.284,7.787,3.524c1.663,1.892,2.579,4.321,2.579,6.842c0,0.091-0.001,0.181-0.004,0.272
	c-0.066,2.568-1.078,5.008-2.849,6.87C24.207,35.003,21.468,36.178,18.642,36.178z M18.642,22.435c-1.862,0-3.377,1.515-3.377,3.377
	c0,1.862,1.515,3.377,3.377,3.377c0.934,0,1.804-0.373,2.448-1.051c0.577-0.607,0.906-1.4,0.928-2.236
	c0.001-0.03,0.001-0.06,0.001-0.091c0-0.821-0.298-1.612-0.839-2.228C20.538,22.854,19.613,22.435,18.642,22.435z"/>
<linearGradient id="SVGID_7_" gradientUnits="userSpaceOnUse" x1="0.915" y1="20.1905" x2="36.3685" y2="20.1905" gradientTransform="matrix(1 0 0 -1 0 46)">
	<stop  offset="0" style="stop-color:#FF9600"/>
	<stop  offset="1" style="stop-color:#FFB400"/>
</linearGradient>
<path style="fill:url(#SVGID_7_);" d="M18.642,43.536c-9.774,0-17.727-7.952-17.727-17.727S8.867,8.083,18.642,8.083
	c5.096,0,9.951,2.197,13.318,6.027c2.843,3.234,4.409,7.389,4.409,11.699c0,0.156-0.002,0.312-0.006,0.467
	c-0.114,4.389-1.844,8.561-4.872,11.746C28.11,41.578,23.547,43.536,18.642,43.536z M18.642,11.078
	c-8.123,0-14.732,6.609-14.732,14.732s6.609,14.732,14.732,14.732c4.076,0,7.868-1.628,10.678-4.583
	c2.516-2.647,3.954-6.113,4.048-9.76c0.003-0.129,0.005-0.259,0.005-0.389c0-3.582-1.301-7.035-3.663-9.722
	C26.911,12.904,22.877,11.078,18.642,11.078z"/>
<g>
	<g>
		<path style="fill:#595959;" d="M94.393,14.351H80.931c-0.232,0-0.451,0.107-0.593,0.291l-1.938,2.494h15.994V14.351z"/>
		<path style="fill:#595959;" d="M79.496,9.338c-2.723,0-4.951,2.228-4.951,4.951v19.538h2.779V14.146c0-1.121,0.909-2.03,2.03-2.03
			h16.903v18.937l-2.164,2.774h4.942V12.117V9.338H79.496z"/>
		<path style="fill:#595959;" d="M90.987,19.919h-8.32v-0.002h-2.779v0.002h-0.011v2.779h0.011v6.135h-0.013v2.779h0.013h2.779
			h6.867c0.942,0,1.857-0.314,2.6-0.893l0,0c1.03-0.802,1.632-2.034,1.632-3.339v-7.462h-2.779V19.919z M82.667,28.832v-6.135h8.32
			v4.678c0,0.804-0.652,1.457-1.457,1.457H82.667z"/>
	</g>
	<g>
		<path style="fill:#595959;" d="M158,21.553v-2.785h-22.677c-0.232,0-0.451,0.107-0.593,0.291l-1.938,2.494h5.394l-4.852,12.274
			l-0.004,0.006h0.001l-0.001,0.003h3.487l0.001-0.003h16.565l2.937-2.563v-7.022h-3.152v6.8h-15.25l3.753-9.495L158,21.553
			L158,21.553z"/>
		<path style="fill:#595959;" d="M156.878,9.335h-20.594c-0.232,0-0.451,0.107-0.593,0.291l-1.938,2.494h23.125V9.335z"/>
	</g>
	<g>
		<path style="fill:#595959;" d="M120.301,21.012h5.032v1.141l-2.164,2.774h4.942V9.34V9.339h-7.596
			c-1.646,0-2.993,1.347-2.993,2.993v12.427h2.779L120.301,21.012L120.301,21.012z M120.929,12.117h4.404v1.669h-5.032v-1.041
			C120.301,12.398,120.582,12.117,120.929,12.117z M120.301,16.564h5.032v1.669h-5.032V16.564z"/>
		<path style="fill:#595959;" d="M117.519,31.048v-1.663h10.597V26.6h-10.597V25.48h-2.779V26.6h-7.92
			c-0.232,0-0.451,0.107-0.593,0.291l-1.938,2.494h10.451v1.663h-9.122c-0.232,0-0.451,0.107-0.593,0.291l-1.938,2.494h25.63v-2.785
			H117.519z"/>
		<path style="fill:#595959;" d="M108.062,13.8h0.548v5.572h-1.669v-4.47h-2.779v4.47v2.766v0.013h3.594l-2.88,3.314h3.852
			l2.88-3.314h1.235c1.036,0,2.005-0.515,2.583-1.375l0,0c0.346-0.514,0.531-1.119,0.531-1.739v-4.135h-2.779v3.775
			c0,0.384-0.311,0.695-0.695,0.695h-1.094V13.8h0.527h3.358h1.122v-2.779h-1.122v-2.37l-3.002,1.075
			c-0.213,0.076-0.356,0.279-0.356,0.505v0.79h-3.854v-2.37l-3.002,1.075c-0.213,0.076-0.356,0.279-0.356,0.505v0.79h-1.125v2.779
			h1.125L108.062,13.8L108.062,13.8z"/>
	</g>
</g>
<g>
	<path style="fill:#848484;" d="M74.518,38.241h0.609l0.383,1.539c0.058,0.28,0.105,0.539,0.158,0.814h0.021
		c0.063-0.275,0.121-0.539,0.189-0.814l0.41-1.539h0.557l0.415,1.539c0.068,0.28,0.126,0.539,0.194,0.814h0.021
		c0.058-0.275,0.105-0.534,0.168-0.814l0.373-1.539h0.567l-0.746,2.851h-0.725l-0.367-1.41c-0.068-0.27-0.121-0.529-0.184-0.824
		h-0.026c-0.058,0.295-0.11,0.56-0.184,0.829L76,41.091h-0.699L74.518,38.241z"/>
	<path style="fill:#848484;" d="M79.918,38.241h0.609l0.383,1.539c0.058,0.28,0.105,0.539,0.158,0.814h0.021
		c0.063-0.275,0.121-0.539,0.189-0.814l0.41-1.539h0.557l0.415,1.539c0.068,0.28,0.126,0.539,0.194,0.814h0.021
		c0.058-0.275,0.105-0.534,0.168-0.814l0.373-1.539h0.567l-0.746,2.851h-0.725l-0.368-1.41c-0.068-0.27-0.121-0.529-0.184-0.824
		h-0.026c-0.058,0.295-0.11,0.56-0.184,0.829l-0.352,1.404H80.7L79.918,38.241z"/>
	<path style="fill:#848484;" d="M85.318,38.241h0.609l0.383,1.539c0.058,0.28,0.105,0.539,0.158,0.814h0.021
		c0.063-0.275,0.121-0.539,0.189-0.814l0.41-1.539h0.557l0.415,1.539c0.068,0.28,0.126,0.539,0.194,0.814h0.021
		c0.058-0.275,0.105-0.534,0.168-0.814l0.373-1.539h0.567l-0.746,2.851h-0.725l-0.368-1.41c-0.068-0.27-0.121-0.529-0.184-0.824
		h-0.026c-0.058,0.295-0.11,0.56-0.184,0.829l-0.352,1.404H86.1L85.318,38.241z"/>
	<path style="fill:#848484;" d="M90.633,40.744c0-0.249,0.179-0.425,0.404-0.425c0.226,0,0.404,0.176,0.404,0.425
		c0,0.243-0.179,0.415-0.404,0.415C90.812,41.159,90.633,40.988,90.633,40.744z"/>
	<path style="fill:#848484;" d="M95.655,40.158v-1.441h-0.42v-0.446l0.452-0.031l0.068-0.788h0.504v0.788h0.751v0.477h-0.751v1.446
		c0,0.342,0.121,0.518,0.42,0.518c0.1,0,0.226-0.031,0.31-0.067l0.11,0.44c-0.163,0.052-0.357,0.104-0.567,0.104
		C95.881,41.159,95.655,40.76,95.655,40.158z"/>
	<path style="fill:#848484;" d="M98.397,39.666c0-0.948,0.646-1.498,1.361-1.498s1.361,0.549,1.361,1.498s-0.646,1.493-1.361,1.493
		S98.397,40.614,98.397,39.666z M100.498,39.666c0-0.601-0.284-1.006-0.741-1.006c-0.452,0-0.735,0.404-0.735,1.006
		c0,0.606,0.284,1.006,0.735,1.006C100.214,40.671,100.498,40.273,100.498,39.666z"/>
	<path style="fill:#848484;" d="M102.877,38.241h0.494l0.047,0.394h0.016c0.268-0.254,0.562-0.466,0.956-0.466
		c0.615,0,0.888,0.404,0.888,1.13v1.793h-0.604v-1.72c0-0.492-0.147-0.689-0.489-0.689c-0.268,0-0.452,0.135-0.704,0.389v2.021
		h-0.604L102.877,38.241L102.877,38.241z"/>
	<path style="fill:#848484;" d="M106.995,41.62c0-0.238,0.152-0.461,0.42-0.622v-0.026c-0.147-0.088-0.263-0.238-0.263-0.472
		c0-0.223,0.163-0.415,0.326-0.529v-0.021c-0.2-0.15-0.384-0.42-0.384-0.762c0-0.643,0.52-1.021,1.119-1.021
		c0.163,0,0.31,0.031,0.42,0.073h1.024v0.446h-0.552c0.11,0.114,0.189,0.306,0.189,0.523c0,0.622-0.478,0.979-1.082,0.979
		c-0.131,0-0.278-0.031-0.404-0.088c-0.095,0.083-0.158,0.161-0.158,0.301c0,0.171,0.116,0.28,0.483,0.28h0.531
		c0.683,0,1.04,0.207,1.04,0.694c0,0.55-0.588,0.995-1.513,0.995C107.5,42.371,106.995,42.117,106.995,41.62z M109.123,41.47
		c0-0.238-0.189-0.311-0.541-0.311h-0.436c-0.137,0-0.268-0.016-0.389-0.041c-0.173,0.124-0.247,0.27-0.247,0.415
		c0,0.28,0.294,0.446,0.772,0.446C108.787,41.977,109.123,41.734,109.123,41.47z M108.761,39.189c0-0.378-0.242-0.601-0.546-0.601
		s-0.546,0.218-0.546,0.601c0,0.384,0.247,0.617,0.546,0.617S108.761,39.573,108.761,39.189z"/>
	<path style="fill:#848484;" d="M110.988,40.765l0.284-0.384c0.257,0.197,0.51,0.327,0.82,0.327c0.347,0,0.51-0.166,0.51-0.384
		c0-0.259-0.326-0.373-0.636-0.492c-0.389-0.145-0.814-0.347-0.814-0.829c0-0.477,0.389-0.834,1.03-0.834
		c0.383,0,0.704,0.156,0.935,0.337l-0.284,0.368c-0.2-0.145-0.404-0.249-0.641-0.249c-0.32,0-0.467,0.156-0.467,0.352
		c0,0.244,0.284,0.337,0.599,0.451c0.404,0.15,0.851,0.327,0.851,0.866c0,0.477-0.383,0.866-1.098,0.866
		C111.676,41.159,111.271,40.993,110.988,40.765z"/>
	<path style="fill:#848484;" d="M114.827,40.034v-1.793h0.604v1.721c0,0.487,0.142,0.684,0.483,0.684
		c0.268,0,0.452-0.124,0.693-0.425v-1.98h0.604v2.851h-0.494l-0.047-0.43h-0.016c-0.263,0.3-0.546,0.497-0.94,0.497
		C115.095,41.159,114.827,40.76,114.827,40.034z"/>
	<path style="fill:#848484;" d="M118.94,42.226l0.116-0.466c0.053,0.016,0.137,0.041,0.21,0.041c0.315,0,0.499-0.228,0.604-0.534
		l0.058-0.197l-1.145-2.83h0.62l0.536,1.467c0.084,0.254,0.173,0.539,0.263,0.803h0.026c0.074-0.259,0.152-0.544,0.226-0.803
		l0.462-1.467h0.588l-1.061,3.022c-0.226,0.612-0.531,1.021-1.14,1.021C119.156,42.283,119.04,42.263,118.94,42.226z"/>
	<path style="fill:#848484;" d="M123.043,40.034v-1.793h0.604v1.721c0,0.487,0.142,0.684,0.483,0.684
		c0.268,0,0.452-0.124,0.693-0.425v-1.98h0.604v2.851h-0.494l-0.047-0.43h-0.016c-0.263,0.3-0.546,0.497-0.94,0.497
		C123.31,41.159,123.043,40.76,123.043,40.034z"/>
	<path style="fill:#848484;" d="M127.387,38.241h0.494l0.047,0.394h0.016c0.268-0.254,0.562-0.466,0.956-0.466
		c0.615,0,0.888,0.404,0.888,1.13v1.793h-0.604v-1.72c0-0.492-0.147-0.689-0.489-0.689c-0.268,0-0.452,0.135-0.704,0.389v2.021
		h-0.604L127.387,38.241L127.387,38.241z"/>
	<path style="fill:#848484;" d="M131.636,40.744c0-0.249,0.179-0.425,0.404-0.425c0.226,0,0.404,0.176,0.404,0.425
		c0,0.243-0.179,0.415-0.404,0.415C131.815,41.159,131.636,40.988,131.636,40.744z"/>
	<path style="fill:#848484;" d="M136.358,39.666c0-0.948,0.667-1.498,1.429-1.498c0.368,0,0.636,0.145,0.846,0.327l-0.299,0.389
		c-0.158-0.14-0.321-0.223-0.515-0.223c-0.488,0-0.835,0.404-0.835,1.006c0,0.606,0.336,1.006,0.814,1.006
		c0.242,0,0.457-0.114,0.63-0.259l0.252,0.394c-0.268,0.233-0.609,0.352-0.94,0.352C136.957,41.159,136.358,40.614,136.358,39.666z"
		/>
	<path style="fill:#848484;" d="M139.988,39.666c0-0.948,0.646-1.498,1.361-1.498c0.714,0,1.361,0.549,1.361,1.498
		s-0.646,1.493-1.361,1.493C140.634,41.159,139.988,40.614,139.988,39.666z M142.089,39.666c0-0.601-0.284-1.006-0.741-1.006
		c-0.452,0-0.735,0.404-0.735,1.006c0,0.606,0.284,1.006,0.735,1.006C141.806,40.671,142.089,40.273,142.089,39.666z"/>
	<path style="fill:#848484;" d="M144.206,38.241h0.494l0.047,0.399h0.016c0.247-0.259,0.536-0.472,0.893-0.472
		c0.431,0,0.672,0.197,0.799,0.523c0.284-0.301,0.578-0.523,0.94-0.523c0.604,0,0.888,0.404,0.888,1.13v1.793h-0.604v-1.72
		c0-0.492-0.158-0.689-0.483-0.689c-0.199,0-0.41,0.13-0.651,0.389v2.021h-0.604v-1.721c0-0.492-0.152-0.689-0.483-0.689
		c-0.194,0-0.41,0.13-0.646,0.389v2.021h-0.604V38.241z"/>
</g>
</svg>
